<?xml version="1.0" standalone="no"?>
<!DOCTYPE svg PUBLIC "-//W3C//DTD SVG 20010904//EN"
 "http://www.w3.org/TR/2001/REC-SVG-20010904/DTD/svg10.dtd">
<svg version="1.0" xmlns="http://www.w3.org/2000/svg"
 width="500.000000pt" height="500.000000pt" viewBox="0 0 500.000000 500.000000"
 preserveAspectRatio="xMidYMid meet">

<g transform="translate(0.000000,500.000000) scale(0.100000,-0.100000)"
fill="#000000" stroke="none">
<path d="M2390 3908 c-137 -181 -145 -191 -129 -186 14 5 228 276 229 291 1
21 -23 -4 -100 -105z"/>
<path d="M2510 3905 c0 -6 25 -41 56 -80 235 -295 301 -374 311 -374 7 -1 -62
92 -154 207 -176 219 -213 263 -213 247z"/>
<path d="M2355 3642 c-103 -159 -135 -214 -135 -231 1 -12 3 -11 12 4 6 11 48
76 93 145 93 143 108 168 103 180 -2 5 -34 -39 -73 -98z"/>
<path d="M2041 3594 c-40 -52 -71 -100 -69 -106 2 -6 29 23 59 63 85 114 101
139 91 139 -5 0 -42 -43 -81 -96z"/>
<path d="M2476 3654 c-3 -9 -6 -23 -6 -32 1 -15 3 -14 15 2 17 22 20 46 6 46
-5 0 -12 -7 -15 -16z"/>
<path d="M2634 3621 c2 -24 9 -48 15 -54 18 -18 13 56 -5 79 -14 18 -15 16
-10 -25z"/>
<path d="M2125 3537 c-150 -236 -205 -326 -205 -338 0 -13 47 55 188 276 69
106 79 125 66 125 -5 -1 -27 -29 -49 -63z"/>
<path d="M2917 3564 c-11 -14 -16 -28 -13 -31 6 -6 45 36 46 50 0 15 -15 6
-33 -19z"/>
<path d="M1850 3507 c-41 -51 -252 -330 -263 -347 -27 -40 76 81 179 212 64
82 114 152 112 158 -1 5 -14 -5 -28 -23z"/>
<path d="M3030 3464 c21 -27 160 -185 184 -209 18 -18 19 -18 5 -1 -45 62
-182 222 -192 225 -7 3 -6 -3 3 -15z"/>
<path d="M1897 3463 c-6 -10 59 -94 66 -86 5 5 -51 93 -59 93 -2 0 -5 -3 -7
-7z"/>
<path d="M2875 3384 c-38 -24 -87 -53 -107 -64 -20 -11 -40 -25 -44 -32 -5 -8
1 -7 16 3 14 8 66 40 115 69 107 64 99 59 94 63 -2 2 -35 -16 -74 -39z"/>
<path d="M1725 3259 c-66 -67 -115 -119 -108 -117 17 4 233 217 233 228 0 6
-1 10 -2 9 -2 0 -57 -54 -123 -120z"/>
<path d="M1374 3003 c-203 -4 -194 0 -194 -80 0 -29 4 -33 40 -43 22 -6 44
-19 50 -30 11 -21 13 -300 3 -463 l-6 -107 -47 0 c-47 0 -47 0 -54 -37 -14
-87 -26 -80 157 -83 375 -7 388 -6 445 19 95 42 145 122 146 232 0 54 -5 74
-27 112 -15 26 -31 47 -35 47 -4 1 -20 11 -35 24 l-28 23 25 37 c30 45 51 132
42 179 -13 71 -79 137 -155 156 -55 14 -130 17 -327 14z m222 -149 c60 -29 82
-110 49 -174 -15 -29 -17 -30 -92 -30 l-76 0 7 53 c3 28 6 78 6 110 l0 57 36
0 c20 0 51 -7 70 -16z m16 -344 c52 -15 78 -51 78 -111 0 -92 -78 -139 -175
-107 -34 11 -40 17 -39 41 0 15 1 63 2 107 l2 80 48 0 c26 0 64 -5 84 -10z"/>
<path d="M2738 3002 l-198 -2 0 -55 c0 -54 1 -56 30 -62 17 -3 40 -17 52 -32
20 -25 20 -32 14 -284 -4 -142 -10 -265 -13 -273 -3 -8 -19 -14 -38 -14 -58 0
-65 -7 -65 -64 l0 -51 205 -1 205 0 0 58 c0 54 -2 58 -23 58 -13 0 -31 6 -41
13 -23 17 -38 99 -30 155 6 43 7 43 41 39 41 -6 34 2 73 -77 92 -184 175 -251
312 -254 77 -1 88 6 88 65 0 31 -4 37 -40 53 -22 9 -56 36 -75 59 -40 46 -115
172 -115 190 1 7 15 21 32 32 120 77 143 256 46 361 -74 80 -132 91 -460 86z
m226 -146 c18 -7 43 -26 55 -42 19 -24 22 -38 19 -82 -7 -82 -59 -122 -160
-122 l-38 0 0 48 c0 26 3 84 7 130 l6 82 39 0 c21 0 53 -6 72 -14z"/>
<path d="M2026 2961 c-11 -65 -8 -70 34 -81 22 -6 44 -19 50 -30 11 -21 13
-251 3 -442 l-6 -128 -42 0 c-51 0 -61 -11 -64 -70 l-2 -45 205 -1 205 0 7 43
c8 55 1 73 -30 73 -14 0 -34 10 -46 22 -18 20 -20 35 -20 172 0 83 3 208 7
279 l6 127 44 0 c38 0 45 4 53 26 6 14 10 40 10 58 l0 32 -204 0 -204 0 -6
-35z"/>
<path d="M3432 2942 c3 -52 4 -55 38 -66 60 -19 62 -31 55 -314 -3 -140 -9
-260 -12 -268 -3 -8 -19 -14 -38 -14 -58 0 -65 -7 -65 -64 l0 -51 205 -1 205
-1 0 59 c0 52 -2 58 -21 58 -73 0 -81 39 -69 331 5 129 10 242 10 252 0 13 9
17 38 17 51 0 58 7 65 66 l6 51 -210 0 -210 0 3 -55z"/>
<path d="M2005 1956 c-109 -29 -163 -70 -202 -153 -38 -79 -73 -113 -117 -113
-49 0 -97 21 -158 70 -61 49 -109 62 -202 59 -41 -2 -80 2 -93 9 -36 20 -132
16 -198 -7 -32 -11 -61 -21 -63 -21 -2 0 -2 -12 0 -27 2 -19 16 -36 43 -54 22
-15 43 -25 47 -23 5 3 8 1 8 -3 0 -15 57 -43 88 -43 16 0 42 10 57 22 21 16
41 22 80 21 64 -1 116 -24 176 -78 96 -89 256 -115 372 -62 39 18 63 36 75 58
67 123 99 149 181 149 68 0 98 -13 154 -68 l48 -47 -12 33 c-6 17 -16 32 -22
32 -6 0 -7 3 -4 7 4 3 -1 12 -11 20 -15 13 -15 13 5 4 11 -6 31 -27 43 -46 12
-19 24 -35 26 -35 9 0 -31 61 -55 86 -21 21 -21 24 -5 19 18 -6 18 -6 2 8 -10
8 -18 20 -18 26 0 8 -8 10 -19 6 -11 -3 -22 -1 -26 5 -3 5 -14 10 -23 10 -9 0
-26 7 -37 16 -17 13 -18 16 -5 24 9 6 10 10 3 10 -6 0 -14 -4 -17 -9 -3 -5
-17 -11 -31 -13 -13 -3 -22 -1 -19 3 3 5 -2 9 -10 9 -9 0 -16 -4 -16 -8 0 -5
-16 -14 -35 -22 -19 -8 -35 -18 -35 -22 0 -5 -11 -13 -25 -18 -14 -5 -29 -19
-34 -31 -6 -19 -9 -20 -14 -6 -8 20 -37 12 -37 -11 0 -13 3 -12 15 4 8 10 15
14 15 7 0 -6 -8 -18 -17 -25 -22 -16 -26 -48 -7 -48 8 0 14 -8 14 -17 0 -15
-2 -16 -10 -3 -8 13 -10 13 -10 1 0 -11 -4 -9 -14 5 -8 10 -18 16 -22 11 -4
-4 -2 -7 4 -7 7 0 12 -4 12 -10 0 -5 -3 -9 -7 -9 -5 1 -17 1 -28 0 -17 -1 -18
-3 -5 -11 12 -8 13 -11 1 -19 -11 -7 -11 -9 0 -13 8 -3 11 -8 7 -12 -3 -4 -16
-1 -28 6 -18 10 -24 10 -27 1 -3 -7 -15 -13 -28 -13 -13 0 -26 -4 -29 -9 -3
-5 -15 -11 -26 -14 -11 -3 -18 -1 -14 4 3 5 1 9 -5 9 -5 0 -11 -5 -13 -11 -3
-8 -10 -6 -21 5 -9 10 -21 14 -27 11 -5 -3 -10 -1 -10 5 0 7 -7 9 -16 6 -8 -3
-12 -2 -9 4 3 6 -1 10 -9 10 -9 0 -16 4 -16 9 0 6 -9 8 -21 6 -16 -3 -18 -1
-10 9 8 10 4 12 -22 9 -24 -2 -27 -1 -13 5 19 8 19 9 0 17 -10 4 -25 7 -31 6
-7 -1 -13 5 -13 12 0 24 -46 38 -122 38 -20 0 -42 6 -48 14 -9 11 -10 15 -1
15 7 0 9 5 6 10 -3 6 1 10 10 10 9 0 14 4 10 9 -6 11 19 12 78 4 22 -3 37 -10
37 -19 0 -10 6 -11 23 -5 19 7 30 4 52 -15 16 -14 35 -22 42 -19 8 2 16 -2 19
-10 4 -8 13 -15 20 -15 8 0 24 -9 36 -20 12 -11 32 -20 45 -20 13 0 23 -6 23
-12 0 -8 3 -9 8 -3 7 10 35 16 80 17 14 0 22 5 19 12 -4 9 2 11 18 8 19 -3 24
1 30 28 4 20 15 34 30 40 13 5 31 22 39 38 8 16 22 32 31 36 10 3 13 11 8 18
-4 7 -9 22 -10 33 -2 18 -1 18 10 -3 7 -12 16 -19 20 -16 11 11 8 26 -3 19 -5
-3 -10 -1 -10 5 0 6 10 8 24 4 14 -3 34 1 48 9 33 21 72 32 64 18 -4 -6 -1
-11 6 -11 7 -1 46 -3 87 -6 68 -6 77 -9 106 -40 18 -19 39 -34 46 -34 11 0 11
2 -1 10 -8 5 -10 10 -5 10 6 -1 18 -7 28 -14 17 -13 16 -14 -3 -19 -28 -7 -15
-35 18 -39 16 -2 28 -11 32 -23 3 -11 11 -21 19 -23 12 -3 12 0 1 13 -20 24
-6 28 15 5 18 -20 18 -21 -3 -27 -25 -6 -26 -11 -11 -33 9 -13 10 -12 5 3 -10
31 15 18 29 -15 8 -18 14 -27 15 -20 0 10 4 10 19 0 15 -9 17 -15 9 -25 -6 -8
-8 -16 -4 -20 3 -3 6 0 6 8 1 11 3 10 10 -2 6 -11 18 -15 35 -11 15 2 25 0 25
-7 0 -7 16 -19 35 -27 40 -16 68 -19 45 -4 -8 5 -12 10 -7 10 11 0 51 -23 59
-35 5 -6 8 -6 8 2 0 8 14 10 41 8 38 -4 40 -3 23 11 -17 13 -17 13 9 4 17 -6
27 -6 27 0 0 6 -7 10 -16 10 -8 0 -12 5 -8 11 3 6 14 9 24 6 10 -2 23 4 31 14
9 13 20 17 36 13 13 -4 23 -2 23 5 0 6 -7 8 -17 4 -11 -5 -14 -3 -8 6 4 8 2
17 -6 22 -9 6 -10 9 -2 9 6 0 18 6 25 13 25 22 58 38 58 27 0 -6 -10 -15 -22
-21 -20 -8 -19 -9 7 -4 l30 5 -30 -25 c-19 -16 -25 -25 -15 -25 11 -1 10 -5
-6 -18 -11 -10 -19 -23 -16 -30 2 -7 -5 -12 -17 -12 -12 0 -21 -6 -21 -15 0
-8 -7 -15 -15 -15 -8 0 -15 -4 -15 -10 0 -5 -7 -10 -16 -10 -8 0 -13 -4 -9 -9
3 -5 1 -12 -5 -16 -5 -3 -10 -1 -10 6 0 7 -8 6 -25 -5 -32 -21 -52 -20 -58 2
-4 16 -5 16 -6 0 -1 -19 -21 -26 -21 -8 0 6 -10 10 -22 9 -22 0 -22 -1 -3 -9
17 -7 16 -9 -10 -10 -16 -1 -39 -6 -50 -11 -15 -7 -11 -7 14 -3 24 4 32 3 26
-6 -5 -9 14 -10 76 -6 46 3 98 8 114 11 27 6 28 5 12 -8 -10 -8 -38 -18 -62
-22 -25 -3 -45 -10 -45 -14 0 -13 95 6 136 28 61 32 87 60 148 152 72 111 117
144 195 143 51 -1 58 -4 81 -35 56 -75 105 -117 150 -129 102 -28 223 -3 269
57 11 13 23 45 27 71 11 81 28 102 83 102 23 0 44 -9 68 -30 44 -39 91 -40
130 -4 21 20 23 24 8 18 -58 -21 -79 -17 -130 28 -41 36 -56 43 -90 43 -58 0
-92 -27 -122 -93 -33 -76 -57 -100 -107 -107 -74 -11 -126 23 -180 116 -41 71
-90 100 -183 108 -125 11 -228 -21 -289 -90 -12 -13 -40 -52 -63 -86 -50 -75
-80 -93 -160 -93 -99 0 -161 38 -210 129 -63 119 -209 211 -344 217 -40 2 -94
-3 -122 -10z m-105 -80 c0 -2 -8 -10 -17 -17 -16 -13 -17 -12 -4 4 13 16 21
21 21 13z m-4 -53 c-10 -10 -19 5 -10 18 6 11 8 11 12 0 2 -7 1 -15 -2 -18z
m1309 7 c4 -6 12 -10 18 -9 7 1 19 1 27 0 13 -1 13 -2 0 -11 -8 -5 -39 -8 -69
-6 -30 3 -71 -2 -93 -10 -22 -8 -45 -11 -51 -7 -5 3 -7 2 -4 -4 7 -11 -36 -53
-54 -53 -5 0 -7 -5 -3 -12 5 -8 2 -9 -9 -5 -10 4 -17 2 -17 -5 0 -7 -5 -6 -15
2 -20 17 -19 27 5 33 14 3 18 10 14 22 -5 11 0 18 14 22 11 3 23 12 26 20 3 8
11 11 16 8 6 -4 17 -2 24 5 8 6 26 9 40 6 14 -3 26 0 26 5 0 12 97 12 105 -1z
m-1975 -41 c0 -5 -5 -9 -11 -9 -6 0 -18 -7 -26 -16 -13 -12 -29 -15 -67 -11
-34 4 -43 3 -26 -3 14 -4 39 -8 57 -9 35 -1 53 -19 32 -32 -19 -11 -102 1
-115 17 -6 7 -16 14 -24 16 -15 3 -50 34 -50 44 0 4 7 1 15 -6 12 -10 15 -10
15 4 0 14 13 16 94 13 83 -2 93 -1 83 13 -11 13 -10 13 6 1 9 -7 17 -17 17
-22z m650 11 c0 -5 -5 -10 -11 -10 -5 0 -7 5 -4 10 3 6 8 10 11 10 2 0 4 -4 4
-10z m470 -10 c13 -8 13 -10 -2 -10 -9 0 -20 5 -23 10 -8 13 5 13 25 0z m936
-5 c4 -8 15 -15 25 -15 11 0 25 -11 32 -27 6 -15 20 -36 30 -45 9 -10 17 -22
17 -28 0 -5 7 -10 15 -10 8 0 15 -4 15 -10 0 -5 6 -7 13 -4 7 2 22 -4 33 -14
11 -11 26 -22 34 -25 8 -4 -1 -6 -20 -5 -21 2 -44 11 -57 25 -12 13 -27 23
-33 23 -5 0 -10 6 -10 14 0 8 -4 18 -10 21 -6 4 -7 -1 -3 -11 4 -12 3 -15 -5
-10 -7 4 -12 14 -12 22 0 8 -9 14 -20 14 -15 0 -20 7 -20 26 0 14 -4 23 -9 20
-5 -3 -11 3 -14 14 -3 12 -14 20 -26 20 -12 0 -21 5 -21 10 0 16 40 12 46 -5z
m-2056 -44 c0 -6 -4 -13 -10 -16 -5 -3 -10 1 -10 9 0 9 5 16 10 16 6 0 10 -4
10 -9z m-44 -63 c4 -5 0 -8 -9 -8 -8 0 -22 -3 -31 -6 -10 -4 -16 -1 -16 8 0
15 42 19 56 6z m2378 -63 c-24 -18 -32 -18 -48 -2 -11 11 -6 13 27 14 36 2 38
1 21 -12z"/>
<path d="M3321 1724 c0 -11 3 -14 6 -6 3 7 2 16 -1 19 -3 4 -6 -2 -5 -13z"/>
<path d="M2058 1883 c7 -3 16 -2 19 1 4 3 -2 6 -13 5 -11 0 -14 -3 -6 -6z"/>
<path d="M2210 1870 c-9 -6 -10 -10 -3 -10 6 0 15 5 18 10 8 12 4 12 -15 0z"/>
<path d="M1833 1726 c4 -10 7 -20 7 -22 0 -2 4 -4 9 -4 14 0 6 33 -9 38 -9 3
-11 -1 -7 -12z"/>
<path d="M1580 1659 c0 -5 5 -7 10 -4 6 3 10 8 10 11 0 2 -4 4 -10 4 -5 0 -10
-5 -10 -11z"/>
<path d="M1707 1630 c-3 -11 -1 -20 4 -20 5 0 9 7 9 16 0 11 6 13 19 9 11 -3
22 -2 24 2 3 4 -8 9 -23 10 -20 1 -29 -3 -33 -17z"/>
<path d="M2390 1631 c0 -6 4 -13 10 -16 6 -3 7 1 4 9 -7 18 -14 21 -14 7z"/>
<path d="M2320 1600 c6 -11 15 -20 20 -20 6 0 2 9 -7 20 -10 11 -19 20 -21 20
-1 0 2 -9 8 -20z"/>
<path d="M2465 1550 c3 -5 8 -10 11 -10 2 0 4 5 4 10 0 6 -5 10 -11 10 -5 0
-7 -4 -4 -10z"/>
<path d="M2370 1540 c0 -5 5 -10 11 -10 5 0 7 5 4 10 -3 6 -8 10 -11 10 -2 0
-4 -4 -4 -10z"/>
<path d="M2727 1519 c7 -7 15 -10 18 -7 3 3 -2 9 -12 12 -14 6 -15 5 -6 -5z"/>
<path d="M2545 1498 c2 -10 -2 -18 -8 -18 -6 0 -8 -3 -4 -6 3 -3 14 -1 24 5
10 6 13 11 6 11 -6 0 -13 6 -16 13 -2 6 -3 4 -2 -5z"/>
<path d="M2425 1490 c3 -5 8 -10 11 -10 2 0 4 5 4 10 0 6 -5 10 -11 10 -5 0
-7 -4 -4 -10z"/>
<path d="M2480 1460 c8 -5 20 -10 25 -10 6 0 3 5 -5 10 -8 5 -19 10 -25 10 -5
0 -3 -5 5 -10z"/>
<path d="M2530 1440 c20 -13 33 -13 25 0 -3 6 -14 10 -23 10 -15 0 -15 -2 -2
-10z"/>
<path d="M2608 1423 c18 -2 45 -2 60 0 15 2 0 4 -33 4 -33 0 -45 -2 -27 -4z"/>
</g>
</svg>
